<svg style="position: absolute; width: 0; height: 0; overflow: hidden;" version="1.1"
     xmlns="http://www.w3.org/2000/svg">
    <defs>
        <symbol id="icon-linkedin" viewBox="0 0 31 32">
            <title>linkedin</title>
            <path d="M15.462 2.528c-7.364 0-13.354 6.031-13.354 13.444s5.99 13.444 13.354 13.444c7.363 0 13.354-6.031 13.354-13.444s-5.99-13.444-13.354-13.444zM15.462 31.538c-8.526 0-15.462-6.983-15.462-15.566s6.936-15.566 15.462-15.566c8.526 0 15.462 6.983 15.462 15.566s-6.936 15.566-15.462 15.566z"></path>
            <path d="M10.159 11.522c1.105 0.011 1.952-0.729 1.951-1.703-0.001-1.075-0.79-1.842-1.895-1.842-1.061-0-1.878 0.722-1.902 1.681-0.027 1.094 0.726 1.853 1.846 1.864v0zM11.856 12.955h-3.382v2.79c0 2.263-0.009 4.527 0.015 6.789 0.002 0.205 0.207 0.578 0.331 0.584 1 0.048 2.004 0.027 3.035 0.027v-10.19zM17.147 12.962h-3.377v10.131h3.36c0-1.951-0.009-3.846 0.003-5.74 0.008-1.148 0.74-1.932 1.792-1.958 1.031-0.026 1.634 0.598 1.666 1.842 0.045 1.756 0.022 3.514 0.059 5.271 0.004 0.214 0.192 0.603 0.309 0.609 1.002 0.049 2.007 0.028 3.028 0.028 0-2.339 0.122-4.608-0.035-6.857-0.146-2.084-1.343-3.268-3.158-3.569-1.457-0.241-2.645 0.245-3.646 1.525v-1.281z"></path>
            <path d="M17.147 12.962v1.281c1.001-1.281 2.189-1.766 3.646-1.525 1.815 0.3 3.012 1.484 3.158 3.568 0.158 2.25 0.036 4.518 0.036 6.857-1.021 0-2.026 0.021-3.028-0.028-0.117-0.006-0.305-0.394-0.309-0.609-0.037-1.756-0.014-3.514-0.059-5.27-0.032-1.245-0.635-1.869-1.666-1.843-1.052 0.027-1.785 0.81-1.792 1.958-0.012 1.894-0.004 3.789-0.004 5.74h-3.36v-10.131h3.378z"></path>
            <path d="M11.856 12.955v10.19c-1.031 0-2.035 0.021-3.035-0.027-0.125-0.006-0.329-0.379-0.331-0.584-0.024-2.263-0.015-4.526-0.015-6.789v-2.79h3.382z"></path>
            <path d="M10.159 11.522c-1.12-0.011-1.873-0.77-1.846-1.864 0.023-0.959 0.841-1.682 1.902-1.681 1.106 0 1.895 0.767 1.895 1.842 0.001 0.975-0.846 1.714-1.951 1.703z"></path>
        </symbol>
        <symbol id="icon-twitter" viewBox="0 0 31 32">
            <title>twitter</title>
            <path d="M15.484 2.53c-7.432 0-13.419 5.987-13.419 13.419s5.987 13.419 13.316 13.419 13.316-5.987 13.316-13.419-5.884-13.419-13.213-13.419zM15.484 31.536c-8.568 0-15.484-7.019-15.484-15.587s6.916-15.587 15.484-15.587 15.484 7.019 15.484 15.587c0 8.568-7.019 15.587-15.484 15.587z"></path>
            <path d="M15.587 13.935c-0.103-0.413-0.103-0.826-0.103-1.239 0.206-1.755 1.652-3.097 3.51-3.2 1.032 0 1.858 0.31 2.581 1.032 0.103 0.103 0.103 0.103 0.206 0.103 0.723-0.206 1.342-0.413 1.961-0.723 0 0 0.103 0 0.103-0.103 0 0 0 0 0 0-0.31 0.826-0.826 1.445-1.445 1.961 0 0 0 0 0 0 0.206 0 0.413-0.103 0.619-0.103s0.413-0.103 0.619-0.206c0.206-0.103 0.413-0.103 0.619-0.206 0 0.103-0.103 0.103-0.103 0.103-0.413 0.619-0.929 1.135-1.548 1.652 0.103 0 0.103 0.103 0.103 0.206 0 2.684-0.826 5.058-2.477 7.123-1.858 2.168-4.232 3.303-7.019 3.51-2.168 0.103-4.232-0.31-6.090-1.445 0 0-0.103 0-0.103-0.103 1.961 0.206 3.613-0.31 5.265-1.548-1.652-0.103-2.787-0.929-3.303-2.477 0.516 0 1.032 0.103 1.548-0.103-0.826-0.206-1.445-0.619-2.065-1.342-0.516-0.619-0.826-1.445-0.826-2.271 0.516 0.206 1.032 0.413 1.548 0.413-1.032-0.826-1.548-1.858-1.548-3.2 0-0.619 0.206-1.135 0.516-1.652 0.929 1.135 2.065 2.065 3.303 2.684 1.342 0.723 2.684 1.032 4.129 1.135z"></path>
        </symbol>
        <symbol id="icon-facebook" viewBox="0 0 31 32">
            <title>facebook</title>
            <path d="M15.249 2.493c-7.262 0-13.17 5.947-13.17 13.258s5.908 13.258 13.17 13.258c7.262 0 13.17-5.947 13.17-13.258s-5.908-13.258-13.17-13.258zM15.249 31.102c-8.408 0-15.249-6.887-15.249-15.351s6.841-15.351 15.249-15.351c8.408 0 15.249 6.886 15.249 15.351s-6.841 15.351-15.249 15.351z"></path>
            <path d="M16.568 24.387h-3.549v-8.637h-1.774v-2.977h1.774v-1.788c0-2.427 1.001-3.87 3.846-3.87h2.369v2.974h-1.48c-1.108 0-1.182 0.416-1.182 1.193l-0.005 1.49h2.684l-0.315 2.977h-2.369v8.637z"></path>
        </symbol>
        <symbol id="icon-instagram" viewBox="0 0 31 32">
            <title>instagram</title>
            <path d="M15.249 2.493c-7.262 0-13.17 5.947-13.17 13.258s5.908 13.258 13.17 13.258c7.262 0 13.17-5.947 13.17-13.258s-5.908-13.258-13.17-13.258zM15.249 31.102c-8.408 0-15.249-6.886-15.249-15.351s6.841-15.351 15.249-15.351c8.408 0 15.249 6.886 15.249 15.351s-6.841 15.351-15.249 15.351z"></path>
            <path d="M21.394 17.64c-0.001 0.44-0.023 0.88-0.045 1.32-0.019 0.383-0.079 0.76-0.204 1.124-0.196 0.572-0.544 1.024-1.054 1.346-0.273 0.172-0.572 0.28-0.884 0.353-0.356 0.082-0.718 0.107-1.081 0.123-0.959 0.044-1.919 0.034-2.879 0.029-0.648 0-1.297 0.006-1.945-0.002-0.417-0.005-0.833-0.023-1.25-0.046-0.36-0.019-0.714-0.075-1.059-0.188-0.733-0.24-1.259-0.709-1.565-1.423-0.129-0.301-0.201-0.619-0.242-0.944-0.046-0.358-0.058-0.719-0.067-1.080-0.037-1.478-0.025-2.956-0.013-4.434 0.003-0.428 0.023-0.857 0.045-1.285 0.020-0.388 0.084-0.769 0.209-1.139 0.178-0.529 0.498-0.947 0.948-1.269 0.268-0.191 0.57-0.306 0.885-0.39 0.259-0.068 0.522-0.106 0.789-0.125l2.032-0.057c0.746-0.002 1.492-0.004 2.238-0.001 0.505 0.002 1.009 0.008 1.514 0.022 0.31 0.008 0.62 0.026 0.928 0.053 0.437 0.039 0.861 0.139 1.251 0.348 0.572 0.307 0.968 0.772 1.186 1.389 0.098 0.278 0.159 0.565 0.192 0.858 0.049 0.435 0.064 0.873 0.067 1.31 0.007 1.368 0.010 2.736 0.006 4.104zM22.717 12.799c-0.015-0.385-0.043-0.769-0.115-1.148-0.081-0.43-0.207-0.847-0.411-1.235-0.473-0.9-1.186-1.526-2.139-1.871-0.495-0.178-1.006-0.267-1.528-0.296-0.422-0.024-0.846-0.041-1.268-0.046-0.669-0.008-1.337-0.002-2.006-0.002-0.92-0.006-1.841-0.015-2.761 0.022-0.325 0.013-0.65 0.026-0.973 0.069-0.38 0.050-0.752 0.133-1.112 0.27-1.080 0.411-1.837 1.156-2.265 2.236-0.212 0.534-0.308 1.094-0.339 1.664-0.023 0.413-0.042 0.826-0.045 1.239-0.012 1.607-0.031 3.214 0.020 4.821 0.011 0.325 0.026 0.649 0.067 0.972 0.050 0.395 0.14 0.779 0.276 1.152 0.254 0.698 0.682 1.266 1.259 1.723 0.426 0.337 0.911 0.553 1.431 0.695 0.424 0.117 0.859 0.174 1.298 0.191 0.523 0.021 1.047 0.041 1.57 0.043 1.437 0.005 2.875 0.025 4.312-0.025 0.366-0.013 0.731-0.030 1.094-0.084 0.316-0.047 0.626-0.119 0.928-0.224 0.598-0.208 1.118-0.539 1.554-1.001 0.419-0.443 0.711-0.961 0.894-1.543 0.155-0.493 0.227-0.999 0.248-1.513 0.020-0.477 0.038-0.954 0.041-1.431 0.007-1.56 0.031-3.12-0.031-4.679z"></path>
            <path d="M15.25 13.23c-1.381-0-2.502 1.125-2.503 2.514-0.001 1.392 1.118 2.522 2.499 2.523 1.382 0.001 2.504-1.126 2.505-2.516 0.001-1.392-1.118-2.52-2.5-2.521zM11.396 15.746c-0.002-2.149 1.743-3.887 3.873-3.878 2.115 0.009 3.836 1.747 3.835 3.882-0.001 2.148-1.742 3.888-3.877 3.878-2.112-0.010-3.833-1.748-3.831-3.882z"></path>
            <path d="M20.156 11.717c-0.002 0.502-0.406 0.906-0.904 0.904-0.495-0.002-0.898-0.411-0.897-0.91 0.002-0.502 0.406-0.905 0.905-0.903 0.498 0.002 0.898 0.407 0.896 0.908z"></path>
        </symbol>
        <symbol id="icon-arrow" viewBox="0 0 24 24">
            <title>arrow</title>
            <path d="M6.984 9.984h10.031l-5.016 5.016z"></path>
        </symbol>
        <symbol id="icon-back" viewBox="0 0 111 32">
            <title>icon-back</title>
            <path d="M110.545 11.636h-101.818v5.818h101.818v-5.818z"></path>
            <path d="M0 16l17.455 16v-32z"></path>
        </symbol>
    </defs>
</svg>