<svg style="position: absolute; width: 0; height: 0; overflow: hidden;" version="1.1"
     xmlns="http://www.w3.org/2000/svg">
    <defs>
        <symbol id="icon-airplane" viewBox="0 0 32 32">
            <title>airplane</title>
            <path d="M4.52 27.206c-0.32-0.285-0.302-0.904 0.046-1.62l-4.507-2.938c0.481-0.481 0.958-0.791 1.756-0.896l5.233-0.695c0.396-0.050 0.781-0.084 1.141-0.151 0.576-0.875 2.355-3.093 3.244-4.269l2.366-3.127-11.446-3.445c-1.191-0.36 1.059-3.030 2.141-2.737l15.086 0.398 3.804-3.8c2.975-2.972 6.971-4.357 7.877-3.453 0.905 0.908-0.484 4.901-3.454 7.873l-3.802 3.805 0.396 15.080c0.295 1.084-2.376 3.331-2.734 2.139l-3.448-11.439-3.129 2.365c-1.175 0.887-3.393 2.666-4.269 3.244-0.071 0.36-0.1 0.745-0.155 1.139l-0.691 5.232c-0.107 0.799-0.415 1.276-0.898 1.758l-2.937-4.507c-0.716 0.347-1.338 0.368-1.622 0.046z"></path>
        </symbol>
        <symbol id="icon-business-to-business" viewBox="0 0 33 32">
            <title>business-to-business</title>
            <path d="M16.584 19.677c-1.366 0-2.705-0.111-4.099-0.136-0.123 0-0.229-0.056-0.307-0.157-0.076-0.096-0.098-0.212-0.070-0.338l0.86-3.83c0.038-0.167-0.022-0.328-0.161-0.424s-0.316-0.096-0.455 0l-11.671 8.242c-0.109 0.075-0.169 0.192-0.166 0.328 0 0.131 0.058 0.247 0.166 0.323 3.902 2.734 7.779 5.487 11.664 8.242 0.138 0.095 0.315 0.101 0.454 0.005 0.141-0.096 0.199-0.263 0.163-0.424l-0.857-3.836c-0.027-0.121-0.006-0.237 0.071-0.338 0.075-0.101 0.184-0.152 0.307-0.156 1.394-0.046 2.758-0.121 4.102-0.121h1.893c10.598 0 13.84-5.538 13.739-13.628-4.958 4.891-5.081 6.25-15.632 6.25zM20.244 4.821c0.124-0.004 0.232-0.055 0.308-0.156 0.078-0.096 0.1-0.217 0.073-0.339l-0.857-3.835c-0.038-0.162 0.020-0.328 0.161-0.419 0.139-0.096 0.315-0.096 0.454 0 3.886 2.754 7.765 5.507 11.664 8.242 0.111 0.081 0.169 0.192 0.169 0.328 0 0.132-0.058 0.248-0.169 0.323l-11.671 8.242c-0.138 0.096-0.313 0.101-0.454 0-0.138-0.091-0.199-0.257-0.162-0.42l0.86-3.835c0.028-0.121 0.008-0.242-0.070-0.338-0.076-0.1-0.184-0.156-0.308-0.156-1.391-0.020-2.73-0.136-4.096-0.136-10.553 0-10.676 1.359-15.632 6.25-0.103-8.084 3.141-13.628 13.736-13.628h1.896c1.344 0 2.705-0.076 4.099-0.122z"></path>
        </symbol>
        <symbol id="icon-car" viewBox="0 0 65 32">
            <title>car</title>
            <path d="M51.141 18.612v0c3.666 0 6.637 2.971 6.637 6.636s-2.972 6.636-6.637 6.636c-3.664 0-6.637-2.971-6.637-6.636s2.973-6.636 6.637-6.636zM51.141 22.008c-1.795 0-3.251 1.452-3.251 3.247 0 1.794 1.456 3.247 3.251 3.247s3.248-1.452 3.248-3.247c0-1.796-1.453-3.247-3.248-3.247v0zM12.679 18.612v0c3.666 0 6.641 2.971 6.641 6.636s-2.976 6.636-6.641 6.636c-3.664 0-6.637-2.971-6.637-6.636s2.973-6.636 6.637-6.636zM12.679 22.008c-1.795 0-3.248 1.452-3.248 3.247 0 1.794 1.453 3.247 3.248 3.247s3.252-1.452 3.252-3.247c0-1.796-1.456-3.247-3.252-3.247v0zM2.089 25.538c-1.84 0-1.419-7.418-1.419-10.389 0-1.177 0.98-0.901 1.334-2.041 0.071-0.223 0.148-0.461 0.231-0.708 0.447-1.317 1.632-2.167 3.021-2.167h6.906l-0.812-2.934c-0.246-0.894 0.279-1.825 1.173-2.071h0.004c0.89-0.253 1.822 0.276 2.071 1.169l1.065 3.835h9.488l-0.812-2.934c-0.25-0.894 0.279-1.825 1.173-2.071 0.893-0.253 1.825 0.276 2.074 1.169l1.066 3.835h12.883c0.477 0 0.884-0.305 1.017-0.76 0.13-0.454-0.044-0.93-0.443-1.184-0.293-0.187-0.58-0.373-0.871-0.559-2.92-1.891-7.382-4.989-11.126-5.555v-0.231c0-0.521 0.223-0.968 0.641-1.28 0.414-0.314 0.909-0.403 1.405-0.253 5.68 1.66 11.684 7.097 17.58 9.689h1.278c8.382 0.134 10.56 3.612 11.771 6.903 0.134 0.366 0.998 0.708 1.080 1.073 0.588 2.583-0.105 7.41-0.708 7.462h-3.844c0.004-0.097 0.008-0.194 0.008-0.29 0-4.513-3.661-8.178-8.18-8.178s-8.183 3.664-8.183 8.178c0 0.097 0.004 0.194 0.007 0.29h-22.11c0.004-0.097 0.004-0.194 0.004-0.29 0-4.513-3.661-8.178-8.18-8.178s-8.179 3.664-8.179 8.178c0 0.097 0.004 0.194 0.007 0.29h-2.418z"></path>
        </symbol>
        <symbol id="icon-cart" viewBox="0 0 43 32">
            <title>cart</title>
            <path d="M30.845 24.839c-0.454 0-0.881 0.089-1.271 0.248-0.408 0.169-0.776 0.414-1.081 0.718l-0.003 0.006c-0.599 0.598-0.97 1.43-0.97 2.348 0 0.455 0.089 0.884 0.252 1.274 0.169 0.405 0.414 0.771 0.718 1.078l0.006 0.003c0.305 0.307 0.67 0.553 1.078 0.719 0.39 0.16 0.817 0.251 1.271 0.251 0.451 0 0.882-0.092 1.271-0.251 0.408-0.166 0.774-0.412 1.078-0.719l0.003-0.003c0.307-0.307 0.553-0.672 0.722-1.078 0.163-0.39 0.252-0.822 0.252-1.274s-0.090-0.881-0.252-1.271c-0.169-0.405-0.414-0.774-0.722-1.078v-0.006c-0.307-0.304-0.673-0.549-1.081-0.718-0.39-0.16-0.82-0.248-1.271-0.248v0zM9.695 18.355c-0.174-0.549-0.33-1.071-0.479-1.57-0.149-0.507-0.298-1.026-0.44-1.54-0.154-0.541-0.283-1.013-0.405-1.453v-0.003c-0.347-1.264-0.658-2.384-0.996-3.383v-0.003c-0.338-1.001-0.705-1.876-1.165-2.645-0.452-0.753-1.004-1.409-1.714-1.992-0.713-0.584-1.583-1.093-2.683-1.55l-0.050-0.020c-0.24-0.1-0.452-0.241-0.626-0.418-0.182-0.176-0.323-0.392-0.42-0.623-0.091-0.221-0.144-0.459-0.148-0.7-0.005-0.231 0.032-0.472 0.119-0.703l0.008-0.022v-0.012l0.020-0.037 0.002-0.010c0.1-0.238 0.244-0.447 0.415-0.621 0.179-0.178 0.392-0.32 0.623-0.417s0.482-0.146 0.738-0.146c0.243 0 0.494 0.045 0.738 0.144 0.718 0.295 1.364 0.601 1.948 0.919 0.584 0.32 1.111 0.656 1.583 1.006 0.447 0.333 0.85 0.683 1.212 1.048s0.689 0.752 0.984 1.157l0.037 0.052 33.177 0.045 0.084 0.024h0.003c0.177 0.057 0.331 0.147 0.462 0.261 0.137 0.117 0.251 0.261 0.333 0.42 0.079 0.159 0.131 0.333 0.144 0.514 0.015 0.174-0.008 0.355-0.062 0.532l-3.178 9.685c-0.129 0.397-0.288 0.777-0.47 1.137-0.186 0.365-0.4 0.713-0.634 1.041-0.239 0.328-0.502 0.636-0.785 0.922-0.283 0.283-0.589 0.544-0.914 0.78s-0.671 0.447-1.032 0.628c-0.358 0.179-0.733 0.333-1.12 0.457l-0.040 0.012c-0.37 0.12-0.755 0.209-1.143 0.269-0.397 0.062-0.805 0.094-1.225 0.094l-18.438-0.008c-3.599 0-4.462-3.271-4.462-3.271v0zM35.211 12.391h3.141l1.533-4.67 0.052-0.164h-4.726v4.834zM29.013 12.391h4.539v-4.834h-4.539v4.834zM22.813 12.391h4.539v-4.834h-4.539v4.834zM16.615 12.391h4.539v-4.834h-4.539v4.834zM12.023 12.391h2.932v-4.834h-4.487l0.067 0.171c0.331 0.825 0.614 1.659 0.87 2.496 0.219 0.716 0.42 1.44 0.619 2.166v0zM14.954 14.052h-2.49c0.209 0.785 0.427 1.57 0.666 2.352 0.248 0.81 0.521 1.615 0.84 2.402l0.032 0.080h0.951v-4.834zM16.614 18.886h4.539v-4.834h-4.539v4.834zM22.813 18.886h4.539v-4.834h-4.539v4.834zM33.551 14.052h-4.539v4.834h3.582c0.209 0 0.417-0.015 0.622-0.037 0.111-0.012 0.223-0.027 0.335-0.049v-4.747zM37.807 14.052h-2.597v4.12c0.107-0.064 0.214-0.134 0.313-0.206l0.007-0.005 0.008-0.004c0.209-0.199 0.402-0.383 0.583-0.569 0.182-0.183 0.351-0.37 0.5-0.561s0.285-0.395 0.405-0.618v-0.003c0.122-0.226 0.231-0.474 0.323-0.758l0.457-1.396zM16.833 24.839c-0.451 0-0.881 0.089-1.274 0.248-0.406 0.169-0.771 0.414-1.075 0.718l-0.006 0.006c-0.304 0.307-0.549 0.672-0.719 1.078-0.159 0.39-0.252 0.819-0.252 1.271s0.092 0.884 0.252 1.274c0.16 0.384 0.391 0.737 0.676 1.032h0.003l0.046 0.046c0.599 0.601 1.431 0.973 2.349 0.973 0.452 0 0.881-0.092 1.274-0.251 0.384-0.157 0.737-0.39 1.032-0.676l0.046-0.046c0.304-0.307 0.553-0.672 0.722-1.081 0.163-0.39 0.252-0.819 0.252-1.271s-0.089-0.881-0.252-1.274c-0.166-0.402-0.414-0.771-0.719-1.074l-0.003-0.006c-0.307-0.304-0.672-0.549-1.078-0.718-0.39-0.16-0.823-0.248-1.274-0.248v0z"></path>
        </symbol>
        <symbol id="icon-coffee-mug" viewBox="0 0 30 32">
            <title>coffee-mug</title>
            <path d="M7.479 27.652c-0.771-0.76-1.38-1.705-1.795-2.773-0.419-1.080-0.64-2.289-0.64-3.56v-4.972c0-0.537-0.438-0.973-0.973-0.973-0.539 0-0.977 0.436-0.977 0.973v4.972c0 1.502 0.272 2.95 0.779 4.259 0.516 1.326 1.272 2.506 2.241 3.459 0.383 0.376 1 0.37 1.376-0.011 0.372-0.382 0.368-0.998-0.012-1.374zM22.079 24.892c4.862-1.358 7.23-8.498 0.411-7.009v3.787c0 1.114-0.144 2.193-0.411 3.223zM22.491 15.309c8.917-1.358 10.060 9.734-1.458 12.298-0.721 1.372-1.686 2.599-2.834 3.62-0.473 0.422-1.019 0.63-1.652 0.63h-10.15c-0.636 0-1.182-0.207-1.655-0.63-2.633-2.343-4.288-5.755-4.288-9.557v-6.279c0-0.133-0.004-0.267-0.008-0.401-0.011-0.388 0.12-0.725 0.388-1.004 0.271-0.279 0.609-0.42 0.996-0.42h19.284c0.388 0 0.721 0.141 0.992 0.42 0.268 0.279 0.399 0.617 0.388 1.004-0.003 0.106-0.003 0.213-0.003 0.319zM7.607 10.587c-0.066-0.434-0.17-0.884-0.275-1.343-0.31-1.333 0.097-2.744 0.853-3.38 1.683-1.411 0.341-2.874-0.271-4.337-0.12-0.283-0.236-0.566-0.325-0.821-0.082-0.233-0.353-0.361-0.609-0.287s-0.399 0.322-0.318 0.552c0.109 0.307 0.225 0.587 0.345 0.868 0.496 1.186 0.993 2.372-0.213 3.38-1.159 0.975-0.776 2.633-0.411 4.205 0.101 0.446 0.202 0.886 0.26 1.275 0.035 0.242 0.279 0.413 0.547 0.38 0.263-0.031 0.449-0.252 0.418-0.492zM11.616 10.587c0.035 0.24-0.156 0.461-0.419 0.492-0.268 0.033-0.512-0.138-0.543-0.38-0.058-0.389-0.163-0.83-0.264-1.275-0.364-1.571-0.748-3.23 0.415-4.205 1.202-1.008 0.706-2.194 0.209-3.38-0.116-0.281-0.236-0.562-0.341-0.868-0.081-0.23 0.058-0.479 0.314-0.552s0.527 0.054 0.609 0.287c0.089 0.256 0.21 0.538 0.326 0.821 0.613 1.463 1.819 3.108 0.136 4.519-0.756 0.635-1.024 1.864-0.717 3.197 0.105 0.459 0.209 0.909 0.275 1.343zM16.005 10.587c0.035 0.24-0.156 0.461-0.419 0.492-0.268 0.033-0.512-0.138-0.543-0.38-0.058-0.389-0.163-0.83-0.264-1.277-0.365-1.57-0.748-3.228 0.415-4.203 1.202-1.008 0.706-2.194 0.209-3.38-0.12-0.281-0.237-0.562-0.345-0.868-0.077-0.23 0.062-0.479 0.318-0.552s0.527 0.054 0.609 0.287c0.089 0.256 0.205 0.538 0.325 0.821 0.613 1.463 2.047 3.108 0.36 4.519-0.756 0.635-1.252 1.864-0.942 3.197 0.105 0.458 0.21 0.909 0.276 1.343z"></path>
        </symbol>
        <symbol id="icon-credit-cards" viewBox="0 0 35 32">
            <title>credit-cards</title>
            <path d="M9.464 28.32c-0.181 0-0.327-0.148-0.327-0.326v-0.651c0-0.182 0.146-0.328 0.327-0.328h4.309c0.178 0 0.327 0.146 0.327 0.328v0.651c0 0.178-0.148 0.326-0.327 0.326h-4.309zM15.467 28.32c-0.18 0-0.326-0.148-0.326-0.326v-0.651c0-0.182 0.146-0.328 0.326-0.328h4.309c0.181 0 0.327 0.146 0.327 0.328v0.651c0 0.178-0.146 0.326-0.327 0.326h-4.309zM21.472 28.32c-0.18 0-0.327-0.148-0.327-0.326v-0.651c0-0.182 0.146-0.328 0.327-0.328h4.309c0.178 0 0.327 0.146 0.327 0.328v0.651c0 0.178-0.148 0.326-0.327 0.326h-4.309zM27.478 28.32c-0.182 0-0.33-0.148-0.33-0.326v-0.653c0-0.18 0.148-0.326 0.33-0.326h4.305c0.179 0 0.327 0.146 0.327 0.326v0.653c0 0.178-0.148 0.326-0.327 0.326h-4.305zM32.11 19.803v0c0 0.18-0.148 0.326-0.327 0.326h-6.288c-0.178 0-0.326-0.146-0.326-0.326v-2.811c0-0.18 0.148-0.328 0.326-0.328h6.288c0.183 0 0.327 0.146 0.327 0.328v2.811zM8.058 13.619c-1.172 0-2.125 0.955-2.125 2.126v13.805c0 1.169 0.953 2.124 2.125 2.124h24.573c1.17 0 2.126-0.955 2.126-2.124v-13.805c0-1.171-0.957-2.126-2.126-2.126h-24.573zM1.838 5.91l23.965-5.392c1.143-0.256 2.282 0.463 2.54 1.604l2.513 11.097h-1.5l-1.139-5.025-25.252 5.726 1.564 6.893 0.138 0.612c0.056 0.247 0.3 0.402 0.547 0.345l0.188-0.041v1.469l-0.027 0.008c-0.949 0.213-1.894-0.387-2.111-1.334l-3.035-13.416c-0.127-0.571-0.037-1.108 0.277-1.604s0.759-0.81 1.331-0.939v0zM2.047 9.867l25.252-5.725-0.349-1.545c-0.099-0.438-0.539-0.716-0.976-0.617l-23.667 5.327c-0.439 0.099-0.716 0.537-0.617 0.975 0.118 0.528 0.237 1.057 0.357 1.585v0z"></path>
        </symbol>
        <symbol id="icon-devices" viewBox="0 0 26 32">
            <title>devices</title>
            <path d="M11.235 26.275c-0.433 0-0.787 0.354-0.787 0.789 0 0.439 0.354 0.791 0.787 0.791 0.441 0 0.791-0.352 0.791-0.791 0-0.435-0.35-0.789-0.791-0.789v0zM18.819 4.401h-15.164v19.221h11.471v-9.783l3.693-0.688v-8.75zM15.175 29.086h-13.058c-1.16 0-2.105-0.947-2.105-2.109v-24.86c0-1.16 0.946-2.107 2.105-2.107h18.238c1.16 0 2.105 0.947 2.105 2.107v11.279l-1.752-0.196v-9.744c0-0.524-0.422-0.947-0.946-0.947h-17.055c-0.524 0-0.945 0.423-0.945 0.947v21.113c0 0.524 0.422 0.945 0.945 0.945h12.466v3.572z"></path>
            <path d="M21.043 29.619c-0.159-0.16-0.378-0.258-0.62-0.258-0.244 0-0.464 0.098-0.623 0.258-0.159 0.159-0.259 0.378-0.259 0.621 0 0.244 0.101 0.464 0.259 0.621 0.159 0.16 0.379 0.258 0.623 0.258 0.241 0 0.461-0.098 0.62-0.258 0.159-0.157 0.26-0.377 0.26-0.621 0-0.243-0.101-0.462-0.26-0.621v0zM24.944 28.325v-13.077c0-0.028-0.007-0.054-0.016-0.078-0.065-0.251-0.29-0.437-0.562-0.437h-7.889c-0.272 0-0.498 0.187-0.562 0.437-0.009 0.024-0.016 0.051-0.016 0.078v13.077c0 0.029 0.007 0.055 0.019 0.079 0.062 0.252 0.288 0.439 0.56 0.439h7.889c0.272 0 0.497-0.187 0.562-0.439 0.009-0.024 0.016-0.050 0.016-0.079v0zM19.368 14.38h2.108c0.239 0 0.435-0.195 0.435-0.435s-0.196-0.434-0.435-0.434h-2.108c-0.239 0-0.433 0.195-0.433 0.434s0.194 0.435 0.433 0.435zM17.057 27.686h6.731v-11.798h-6.731v11.798zM24.794 31.553h-8.744c-0.712 0-1.29-0.579-1.29-1.29v-16.060c0-0.71 0.578-1.29 1.29-1.29h8.744c0.709 0 1.288 0.579 1.288 1.29v16.060c0 0.711-0.578 1.29-1.288 1.29v0z"></path>
        </symbol>
        <symbol id="icon-gaming" viewBox="0 0 50 32">
            <title>gaming</title>
            <path d="M34.225 11.737c-0.884 0.886-0.884 2.319 0.003 3.203 0.884 0.886 2.32 0.886 3.204 0s0.884-2.317 0-3.203c-0.884-0.884-2.32-0.884-3.206 0v0zM39.182 7.096c-0.884 0.886-0.884 2.319 0 3.203 0.884 0.886 2.32 0.886 3.204 0 0.884-0.884 0.884-2.317 0-3.203-0.884-0.884-2.32-0.884-3.204 0v0zM22.628 16.007h4.924v-1.332h-4.924v1.332zM11.466 6.179c-0.751 0-1.363 0.609-1.363 1.362v1.732h-1.733c-0.753 0-1.363 0.612-1.363 1.363v1.022c0 0.75 0.61 1.363 1.363 1.363h1.733v1.735c0 0.748 0.612 1.363 1.363 1.363h1.023c0.75 0 1.363-0.615 1.363-1.363v-1.735h1.735c0.751 0 1.363-0.612 1.36-1.363l0.003-1.022c0-0.75-0.612-1.363-1.363-1.363h-1.735v-1.732c0-0.753-0.613-1.362-1.363-1.362h-1.023zM20.664 3.523h8.374c2.552 0 1.013-2.959 4.741-2.959 16.417 0 11.274 4.709 15.476 22.768 0.486 2.088-0.111 4.067-1.577 5.713-1.469 1.647-3.453 2.511-5.76 2.511h-0.124c-3.697 0-6.788-2.44-7.375-5.822l-0.725-4.182c-0.277-1.594-1.73-2.744-3.474-2.744h-10.74c-1.741 0-3.199 1.15-3.474 2.744l-0.725 4.182c-0.586 3.382-3.68 5.822-7.377 5.822h-0.123c-2.305 0-4.289-0.864-5.758-2.511s-2.063-3.626-1.577-5.713c4.204-18.061-0.942-22.768 15.478-22.768 3.725 0 2.189 2.959 4.741 2.959v0z"></path>
        </symbol>
        <symbol id="icon-esports" viewBox="0 0 35 32">
            <title>esports</title>
            <path d="M32.265 21.090h-2.288v-5.836c0-7.163-5.803-12.966-12.966-12.966s-12.933 5.803-12.933 12.966v5.836h-2.288v-5.836c0-8.39 6.831-15.254 15.254-15.254s15.254 6.831 15.254 15.254v5.836z"></path>
            <path d="M21.654 30.508h-4.145v-1.824h4.145c5.007 0 9.053-4.046 9.053-9.053h1.824c0 6.002-4.875 10.877-10.877 10.877z"></path>
            <path d="M28.684 15.486h1.89c2.189 0 4.012 1.791 4.012 4.012v3.183c0 2.189-1.791 4.012-4.012 4.012h-1.89z"></path>
            <path d="M5.869 15.486h-1.89c-2.189 0-3.979 1.824-3.979 4.012v3.183c0 2.189 1.791 4.012 4.012 4.012h1.89z"></path>
            <path d="M21.886 32h-5.405c-0.663 0-1.227-0.564-1.227-1.227v-2.354c0-0.663 0.531-1.227 1.227-1.227h5.405c0.663 0 1.227 0.531 1.227 1.227v2.354c0 0.696-0.564 1.227-1.227 1.227z"></path>
        </symbol>
        <symbol id="icon-movies" viewBox="0 0 34 32">
            <title>movies</title>
            <path d="M25.022 15.164l1-1.453h4.354l-1 1.453h-4.354zM16.312 15.164l1-1.453h4.356l-1.002 1.453h-4.354zM9.202 13.711h3.756l-1 1.453h-1.389c0.13 0.211 0.218 0.437 0.262 0.672 0.064 0.313 0.050 0.64-0.038 0.96h21.817c0.348 0 0.63-0.282 0.63-0.63v-3.457c0-0.348-0.282-0.63-0.63-0.63h-25.040l1.632 1.632zM32.832 18.346v11.077c0 1.132-1.108 2.059-2.464 2.059h-26.935c-1.354 0-2.464-0.925-2.464-2.059v-11.077h31.864zM31.634 4.671l-24.824 6.65-3.852-3.853 27.453-7.352c0.337-0.090 0.683 0.11 0.773 0.445 0.298 1.112 0.597 2.226 0.894 3.34 0.090 0.335-0.11 0.681-0.445 0.771v0zM23.505 3.653l1.344 1.145 4.207-1.125-1.343-1.147-4.207 1.127zM15.094 5.908l1.341 1.145 4.207-1.127-1.344-1.145-4.204 1.127zM9.092 15.164l0.377 0.377c0.146 0.146 0.241 0.321 0.278 0.509s0.018 0.388-0.062 0.581l-0.002 0.002v0.005l-0.004 0.004v0.004l-0.002 0.003v0.004l-0.003 0.003-0.001 0.002v0.004l-0.002 0.003v0.002l-0.003 0.002v0.002l-0.002 0.004-0.003 0.002v0.002l-0.002 0.003v0.004l-0.002 0.002v0.004h-0.002l-0.002 0.002v0.005l-0.002 0.002v0.002l-0.002 0.002-0.002 0.003v0.002l-0.003 0.002-0.002 0.005v0.006l-0.002 0.002v0.003l-0.004 0.004-0.002 0.003-0.002 0.004v0.002l-0.002 0.002v0.003l-0.003 0.002v0.002h-0.002v0.007l-0.005 0.002v0.002l-0.002 0.003v0.002l-0.002 0.002-0.002 0.003-0.002 0.002v0.004l-0.002 0.002v0.003l-0.002 0.002h-0.003v0.002l-0.002 0.003v0.002l-0.003 0.002v0.002l-0.004 0.002c-0.073 0.117-0.168 0.214-0.278 0.286-0.154 0.104-0.345 0.161-0.557 0.161h-7.57c-0.273 0-0.522-0.112-0.703-0.293s-0.293-0.43-0.293-0.705v-7.566c0-0.211 0.057-0.403 0.16-0.559 0.104-0.156 0.258-0.284 0.452-0.363 0.192-0.079 0.394-0.099 0.581-0.062s0.364 0.13 0.509 0.277l7.193 7.191zM6.68 8.16l1.341 1.147 4.207-1.127-1.341-1.147-4.207 1.127z"></path>
        </symbol>
        <symbol id="icon-newspaper" viewBox="0 0 28 32">
            <title>newspaper</title>
            <path d="M21.862 6.33v0c-0.49-0.366-0.429-1.646-0.11-2.076 0.044-0.063 0.098-0.115 0.159-0.159 0.522-0.384 2.419-0.375 2.946-0.037 0.135 0.088 0.241 0.218 0.314 0.41 0.106 0.277 0.094 0.573 0.098 0.864h-0.984c-0.008-0.106-0.012-0.214-0.033-0.32-0.012-0.051-0.020-0.096-0.033-0.133-0.008-0.023-0.016-0.039-0.020-0.051-0.123-0.267-1.481-0.281-1.624 0.075-0.016 0.041-0.025 0.086-0.033 0.137-0.008 0.045-0.008 0.095-0.008 0.148 0 0.055 0 0.11 0.004 0.165 0.041 0.447 0.388 0.4 0.844 0.408 0.669 0.014 1.701 0.037 1.913 0.739 0.123 0.391 0.102 1.048-0.012 1.421-0.033 0.108-0.073 0.204-0.122 0.284-0.049 0.073-0.102 0.135-0.167 0.183-0.061 0.047-0.139 0.086-0.237 0.123-0.102 0.037-0.224 0.067-0.363 0.092-0.134 0.024-0.285 0.041-0.453 0.053-0.167 0.010-0.355 0.017-0.563 0.017-0.188 0-0.359-0.007-0.51-0.017-0.245-0.018-0.522-0.055-0.759-0.14-0.090-0.037-0.167-0.078-0.228-0.123-0.066-0.047-0.119-0.106-0.168-0.175-0.049-0.073-0.090-0.159-0.122-0.257-0.102-0.298-0.094-0.618-0.098-0.928h0.979c0.004 0.185 0.017 0.42 0.049 0.536 0.114 0.408 1.717 0.341 1.819-0.022 0.33-1.185-1.175-0.846-1.966-1.020-0.216-0.047-0.388-0.104-0.514-0.198zM15.322 3.846v0c0.078 0.29 0.143 0.534 0.212 0.779 0.265 0.983 0.506 1.946 0.726 2.937 0.331-1.244 0.681-2.476 1.028-3.716h1.13c0.343 1.24 0.681 2.474 1 3.718 0.289-1.258 0.624-2.472 0.963-3.718h1.036l-0.045 0.171-1.236 4.613h-1.404c-0.298-1.109-0.604-2.214-0.885-3.33-0.302 1.112-0.612 2.221-0.922 3.33h-1.391l-1.24-4.784h1.028zM11.858 4.711v1.085h2.187v0.775h-2.187v1.197h2.326v0.862h-3.329v-4.784h3.313v0.865h-2.309zM17.688 9.894h6.063c0.396 0 0.718 0.324 0.718 0.718 0 0.396-0.323 0.718-0.718 0.718h-6.063c-0.396 0-0.718-0.322-0.718-0.718 0-0.394 0.322-0.718 0.718-0.718zM17.688 13.753h6.063c0.396 0 0.718 0.324 0.718 0.72 0 0.393-0.323 0.715-0.718 0.715h-6.063c-0.396 0-0.718-0.322-0.718-0.715 0-0.396 0.322-0.72 0.718-0.72zM7.191 17.853h16.56c0.396 0 0.718 0.323 0.718 0.718 0 0.394-0.323 0.716-0.718 0.716h-16.56c-0.392 0-0.718-0.323-0.718-0.716 0-0.395 0.322-0.718 0.718-0.718zM7.191 21.953h16.56c0.396 0 0.718 0.324 0.718 0.717 0 0.396-0.323 0.718-0.718 0.718h-16.56c-0.392 0-0.718-0.322-0.718-0.718 0-0.394 0.322-0.717 0.718-0.717zM7.174 14.344v-2.268l0.318-0.233c0.229-0.171 0.547-0.165 0.771 0.013l2.113 1.656c0.217 0.167 0.515 0.181 0.743 0.033l1.595-1.020c0.237-0.153 0.547-0.133 0.759 0.049l0.95 0.806v0.965h-7.25zM7.174 9.894c-0.396 0-0.718 0.324-0.718 0.718v3.901c0 0.396 0.326 0.718 0.718 0.718h7.246c0.396 0 0.718-0.322 0.718-0.718v-3.901c0-0.394-0.323-0.718-0.718-0.718h-7.246zM0.145 2.859l0.004 26.77c0 0.019 0.016 0.196 0.029 0.196 0 0.016 0.061 0.196 0.065 0.188 0.22 0.435 1.415 1.214 1.848 1.552 0.082 0.066 0.172 0.115 0.261 0.145 0.098 0.032 0.196 0.047 0.298 0.047 0.032 0 0.298-0.028 0.298-0.053 0.098-0.036 0.175-0.083 0.261-0.148l1.028-0.806 1.044 0.816c0.082 0.066 0.171 0.115 0.265 0.145 0.094 0.032 0.192 0.047 0.298 0.047 0.028 0 0.294-0.028 0.294-0.053 0.102-0.036 0.187-0.086 0.269-0.155l1.020-0.799 1.044 0.816c0.082 0.066 0.171 0.115 0.265 0.145 0.098 0.032 0.196 0.047 0.298 0.047 0.028 0 0.294-0.028 0.294-0.053 0.102-0.036 0.179-0.083 0.265-0.148l1.028-0.806 1.041 0.816c0.082 0.066 0.175 0.115 0.265 0.145 0.098 0.032 0.196 0.047 0.298 0.047 0.033 0 0.294-0.028 0.294-0.053 0.102-0.036 0.179-0.083 0.261-0.148l1.032-0.806 1.040 0.816c0.082 0.066 0.176 0.115 0.265 0.145 0.098 0.032 0.196 0.047 0.298 0.047 0.033 0 0.298-0.028 0.298-0.053 0.098-0.036 0.175-0.083 0.261-0.148l1.028-0.806 1.044 0.816c0.081 0.066 0.171 0.115 0.261 0.145 0.098 0.032 0.196 0.047 0.298 0.047 0.033 0 0.298-0.028 0.298-0.053 0.102-0.036 0.175-0.083 0.261-0.148l1.028-0.806 1.044 0.816c0.081 0.066 0.171 0.115 0.265 0.145 0.098 0.032 0.192 0.047 0.298 0.047 0.029 0 0.294-0.028 0.294-0.053 0.102-0.036 0.176-0.083 0.261-0.148l1.583-1.238c0.053-0.043 0.257-0.249 0.257-0.314 0.057-0.12 0.089-0.254 0.086-0.393l0.037-0.783c0.020-0.012 0.195-0.151 0.195-0.151 0.225-0.224 1.889-1.951 2.807-2.801 0.636-0.588 0.677-0.749 0.677-2.019-0.004-6.306 0-12.605 0-18.911v-2.084c0-0.337-0.375-1.684-0.701-1.684-0.115-0.115-0.628-0.518-0.771-0.518-0.282-0.117-0.592-0.182-0.91-0.182h-23.084c-0.657 0-1.257 0.267-1.685 0.7-0.073 0.069-0.514 0.772-0.518 0.772-0.118 0.281-0.184 0.589-0.184 0.912zM20.711 28.877l1.102-0.771 0.673 0.471v0.598l-0.698 0.546-1.032-0.812-0.045-0.032zM17.309 28.766l0.947-0.661 1.26 0.887 0.008 0.004-0.926 0.724-1.032-0.812c-0.077-0.061-0.163-0.11-0.257-0.142zM13.829 28.713l0.865-0.608 1.261 0.887c0.074 0.049 0.151 0.088 0.233 0.114l-0.78 0.614-1.032-0.812c-0.025-0.018-0.261-0.142-0.261-0.145-0.090-0.033-0.187-0.049-0.286-0.051zM3.115 27.004c0 0.074 0.008 0.147 0.024 0.212 0.004 0 0.074 0.184 0.074 0.204 0.012 0.016 0.122 0.175 0.122 0.175 0.045 0.055 0.102 0.102 0.163 0.145l1.779 1.252c0.078 0.053 0.163 0.094 0.249 0.12 0.090 0.029 0.184 0.041 0.278 0.041 0.094-0.002 0.187-0.016 0.269-0.044 0.090-0.027 0.175-0.069 0.248-0.125l1.252-0.879 1.261 0.887c0.078 0.053 0.163 0.094 0.253 0.12 0.089 0.029 0.179 0.041 0.273 0.041 0.093-0.002 0.188-0.016 0.273-0.044 0.086-0.027 0.171-0.069 0.245-0.125l1.253-0.879 1.265 0.887c0.078 0.053 0.163 0.094 0.249 0.12 0.098 0.031 0.192 0.043 0.294 0.041l-0.722 0.567-1.032-0.812c-0.025-0.018-0.261-0.142-0.261-0.145-0.094-0.033-0.196-0.051-0.298-0.051-0.106-0.002-0.241 0.047-0.294 0.047-0.094 0.031-0.183 0.079-0.265 0.143l-1.044 0.818-1.032-0.812c-0.025-0.018-0.257-0.142-0.257-0.145-0.094-0.033-0.196-0.051-0.298-0.051-0.106-0.002-0.24 0.047-0.294 0.047-0.094 0.031-0.183 0.079-0.265 0.143l-1.045 0.818-1.032-0.812c-0.025-0.018-0.257-0.142-0.257-0.145-0.094-0.033-0.196-0.051-0.298-0.051-0.11-0.002-0.24 0.047-0.294 0.047-0.094 0.031-0.184 0.079-0.265 0.143l-1.044 0.818-0.694-0.546v-26.315c0-0.161 0.065-0.308 0.171-0.412 0.016-0.017 0.188-0.125 0.188-0.125 0.065-0.031 0.143-0.045 0.225-0.045s0.196 0.043 0.221 0.043c0.073 0.029 0.134 0.073 0.191 0.127 0.029 0.028 0.127 0.153 0.127 0.189 0.008 0.019 0.045 0.223 0.045 0.223v24.145zM26.195 2.859l0.004 21.062h-2.33c-0.142 0-0.281 0.030-0.404 0.081-0.131 0.055-0.249 0.132-0.347 0.23s-0.175 0.214-0.229 0.344c-0.053 0.125-0.082 0.261-0.082 0.404v1.625l-0.469-0.328c-0.037-0.029-0.204-0.127-0.245-0.127-0.090-0.028-0.183-0.043-0.273-0.043-0.094-0.002-0.187 0.012-0.277 0.041-0.086 0.027-0.171 0.067-0.249 0.12l-1.26 0.887-1.257-0.882c-0.078-0.055-0.159-0.096-0.244-0.124s-0.18-0.043-0.273-0.043c-0.090-0.002-0.184 0.012-0.274 0.041-0.089 0.027-0.171 0.067-0.248 0.12l-1.265 0.887-1.326-0.928c-0.024-0.014-0.151-0.078-0.175-0.078-0.082-0.028-0.18-0.043-0.269-0.043-0.094-0.002-0.188 0.012-0.273 0.041-0.090 0.027-0.175 0.067-0.253 0.12l-1.261 0.887-1.33-0.928c-0.025-0.014-0.151-0.078-0.171-0.078-0.085-0.028-0.179-0.043-0.273-0.043-0.090-0.002-0.184 0.012-0.274 0.041-0.085 0.027-0.171 0.067-0.248 0.12l-1.265 0.887-1.33-0.928c-0.025-0.014-0.147-0.078-0.168-0.078-0.090-0.028-0.183-0.043-0.273-0.043-0.094-0.002-0.188 0.012-0.273 0.041-0.090 0.027-0.175 0.067-0.253 0.12l-1.26 0.887-0.882-0.616v-23.682c0-0.119-0.008-0.241-0.028-0.363-0.012-0.073-0.025-0.147-0.045-0.218h20.774c0.020 0 0.22 0.022 0.22 0.043 0.069 0.029 0.135 0.073 0.192 0.127 0.016 0.016 0.122 0.189 0.127 0.189 0.025 0.067 0.041 0.143 0.041 0.223v0zM8.655 8.63v0c-0.644-1.228-1.269-2.406-1.852-3.667 0.012 1.223 0.012 2.445 0.012 3.667-0.338 0-0.673 0.002-1.008 0.002v-4.786h1.595c0.632 1.228 1.257 2.439 1.857 3.683-0.016-1.228-0.016-2.453-0.013-3.683h1.004v4.784h-1.595z"></path>
        </symbol>
        <symbol id="icon-restaurant" viewBox="0 0 29 32">
            <title>restaurant</title>
            <path d="M14.626 12.672h12.11l0.328-3.214h-12.766l0.328 3.214zM27.472 14.299h-13.58c-0.418 0-0.767-0.316-0.81-0.731l-0.494-4.841c-0.024-0.229 0.051-0.457 0.206-0.628s0.374-0.268 0.604-0.268h14.568c0.23 0 0.449 0.097 0.604 0.268s0.229 0.399 0.206 0.628l-0.494 4.841c-0.042 0.415-0.392 0.731-0.809 0.731v0z"></path>
            <path d="M19.055 27.318h6.409l0.659-13.006h-10.881l0.158 3.118-1.641-0.23-0.185-3.66c-0.011-0.223 0.069-0.44 0.223-0.602s0.367-0.253 0.59-0.253h12.593c0.223 0 0.436 0.091 0.59 0.253s0.234 0.379 0.223 0.602l-0.741 14.633c-0.022 0.433-0.379 0.772-0.813 0.772h-7.043l-0.14-1.627z"></path>
            <path d="M21.485 8.431l-1.607-0.259 0.816-5.052c0.056-0.636 0.558-1.842 2.117-2.181 0.733-0.159 4.011-0.723 4.15-0.747l0.276 1.603c-0.034 0.006-3.382 0.582-4.080 0.734-0.724 0.158-0.828 0.613-0.843 0.749l-0.008 0.067-0.822 5.086z"></path>
            <path d="M18.173 29.477c-0.005 0.181-0.091 0.77-0.995 0.77h-12.526c-0.593 0-0.752-0.848-0.76-0.889l-0.323-1.828h14.938l-0.323 1.828-0.012 0.119zM11.039 17.89c4.444 0 7.89 2.217 7.89 4.124l0.019 0.656h-15.818l0.019-0.656c0-1.907 3.446-4.124 7.89-4.124v0zM20.586 22.994l-0.029-0.992c-0.012-3.058-4.455-5.738-9.517-5.738-5.070 0-9.517 2.687-9.517 5.727l-0.029 1.004c-0.69 0.406-1.156 1.155-1.156 2.012v0.188c0 1.014 0.651 1.877 1.557 2.199l0.395 2.237c0.127 0.776 0.784 2.243 2.364 2.243h12.526c1.831 0 2.561-1.341 2.618-2.284l0.388-2.196c0.905-0.322 1.557-1.185 1.557-2.199v-0.188c0-0.857-0.466-1.606-1.156-2.012v0z"></path>
        </symbol>
        <symbol id="icon-sales-tag" viewBox="0 0 33 32">
            <title>sales-tag</title>
            <path d="M25.169 4.102c-1.673 0-3.030 1.356-3.030 3.026 0 1.672 1.357 3.026 3.030 3.026s3.029-1.354 3.029-3.026c0-1.67-1.357-3.026-3.029-3.026zM11.012 31.445c-1.887-1.053-9.105-8.264-10.167-10.162-0.337-0.602-0.455-1.268-0.362-1.904 0.089-0.641 0.384-1.249 0.868-1.736l15.754-15.753c0.762-0.763 1.652-1.184 2.726-1.295l4.55-0.47c1.394-0.143 2.654 0.303 3.649 1.295l2.848 2.851c0.994 0.99 1.441 2.249 1.298 3.644l-0.463 4.549c-0.114 1.074-0.535 1.963-1.298 2.727l-15.762 15.747c-0.485 0.486-1.095 0.781-1.736 0.869-0.636 0.089-1.302-0.029-1.905-0.364z"></path>
        </symbol>
        <symbol id="icon-satellite" viewBox="0 0 32 32">
            <title>satellite</title>
            <path d="M22.385 17.981c-0.422-4.498-4.004-8.074-8.503-8.496-0.51-0.051-0.896-0.474-0.896-0.985v-1.323c0-0.286 0.109-0.534 0.318-0.726 0.213-0.196 0.467-0.282 0.755-0.26 6.177 0.517 11.103 5.441 11.619 11.616 0.024 0.286-0.064 0.542-0.258 0.755-0.194 0.209-0.442 0.32-0.73 0.32h-1.319c-0.512 0-0.937-0.388-0.986-0.9zM28.188 17.951c-0.461-7.673-6.601-13.809-14.272-14.27-0.523-0.030-0.931-0.465-0.931-0.986v-1.318c0-0.282 0.102-0.525 0.309-0.722 0.205-0.192 0.453-0.281 0.737-0.269 9.399 0.525 16.929 8.053 17.452 17.45 0.015 0.281-0.077 0.529-0.271 0.733-0.194 0.205-0.435 0.312-0.719 0.312h-1.317c-0.523 0-0.956-0.409-0.988-0.93zM15.697 13.462c1.496 0 2.71 1.211 2.71 2.71 0 1.493-1.214 2.71-2.71 2.71s-2.71-1.216-2.71-2.71c0-1.498 1.214-2.71 2.71-2.71zM2.468 15.518c0.222-0.546 0.847-0.811 1.396-0.589s0.813 0.845 0.591 1.395c-0.408 1.003-0.666 2.368-0.478 3.904 0.149 1.229 0.585 2.565 1.456 3.896 0.322 0.495 0.181 1.157-0.314 1.48-0.495 0.32-1.157 0.179-1.479-0.316-1.069-1.638-1.607-3.281-1.792-4.8-0.237-1.937 0.098-3.683 0.621-4.971zM2.486 12.181c-1.509 2.044-2.401 4.57-2.401 7.301 0 6.789 5.506 12.294 12.297 12.294 2.734 0 5.261-0.892 7.304-2.402 0.387-0.286 0.609-0.683 0.643-1.165 0.036-0.478-0.053-0.99-0.464-1.246-6.394-4.020-11.431-8.974-14.965-14.961-0.244-0.414-0.769-0.499-1.246-0.461-0.483 0.034-0.882 0.252-1.168 0.64z"></path>
        </symbol>
        <symbol id="icon-trophy" viewBox="0 0 30 32">
            <title>trophy</title>
            <path d="M21.075 19.226l3.445-15.176h2.212c0.1 0 0.19 0.017 0.26 0.051 0.072 0.034 0.14 0.089 0.2 0.164 0.062 0.076 0.104 0.153 0.123 0.23 0.019 0.081 0.019 0.17-0.002 0.268l-2.488 10.546c-0.266 1.284-1.032 2.318-2.063 3.051-0.511 0.362-1.080 0.653-1.687 0.868v0zM5.195 4.050l3.447 15.176c-0.608-0.215-1.178-0.506-1.686-0.868-1.031-0.733-1.797-1.766-2.063-3.053l-2.49-10.543c-0.019-0.098-0.019-0.189 0-0.268 0.019-0.076 0.060-0.155 0.121-0.23s0.128-0.13 0.2-0.164 0.16-0.051 0.262-0.051h2.21zM6.52 2.111h1.52l4.037 18.033c0.168 0.751 0.606 1.352 1.21 1.771-1.335-0.155-2.539-0.974-2.837-2.29l-3.93-17.515zM4.382 0.121l0.378 1.833h-1.776c-0.409 0-0.797 0.089-1.153 0.257-0.353 0.168-0.668 0.416-0.927 0.736s-0.438 0.674-0.532 1.057c-0.094 0.378-0.1 0.776-0.017 1.175l2.49 10.546c0.381 1.845 1.456 3.31 2.898 4.337 0.991 0.704 2.161 1.201 3.394 1.47 0.502 1.52 2.123 2.389 3.77 2.407v4.522c-2.203 0.232-4.007 0.882-4.007 1.962 0 0.63 0.517 1.144 1.146 1.144h9.617c0.629 0 1.144-0.514 1.144-1.144 0-1.056-1.803-1.711-4.007-1.954v-4.531c1.649-0.017 3.271-0.887 3.773-2.407 1.233-0.268 2.403-0.766 3.394-1.47 1.442-1.027 2.516-2.492 2.899-4.337l2.488-10.546c0.083-0.4 0.076-0.795-0.015-1.174-0.093-0.382-0.272-0.738-0.532-1.058-0.26-0.319-0.574-0.568-0.929-0.736s-0.742-0.257-1.151-0.257h-1.778l0.381-1.833h-20.952z"></path>
        </symbol>
        <symbol id="icon-tv" viewBox="0 0 32 32">
            <title>tv</title>
            <path d="M2.248 9.308c-0.501 0-0.904 0.405-0.904 0.905v15.965c0 0.498 0.403 0.903 0.904 0.903h26.856c0.501 0 0.904-0.405 0.904-0.903v-15.965c0-0.5-0.403-0.905-0.904-0.905h-26.856zM3.155 25.273h25.046v-14.156h-25.046v14.156zM11.787 29.238h7.48v0.986h3.697c0.425 0 0.774 0.347 0.774 0.772v0.604h-16.421v-0.604c0-0.426 0.345-0.772 0.774-0.772h3.697v-0.986zM13.979 4.864l-6.447-3.721c-0.216-0.124-0.291-0.399-0.165-0.613 0.122-0.216 0.399-0.291 0.615-0.167l7.059 4.075c0.206-0.042 0.418-0.063 0.634-0.063 0.219 0 0.432 0.022 0.637 0.063l7.062-4.075c0.212-0.124 0.49-0.049 0.612 0.167 0.126 0.214 0.050 0.49-0.166 0.613l-6.447 3.721c0.536 0.336 0.964 0.828 1.224 1.409h-5.842c0.259-0.581 0.687-1.072 1.224-1.409v0zM2.104 7.566h27.144c1.109 0 2.016 0.905 2.016 2.015v16.931c0 1.108-0.907 2.013-2.016 2.013h-27.144c-1.109 0-2.016-0.905-2.016-2.013v-16.931c0-1.11 0.907-2.015 2.016-2.015v0z"></path>
        </symbol>
    </defs>
</svg>