<svg style="position: absolute; width: 0; height: 0; overflow: hidden;" version="1.1"
     xmlns="http://www.w3.org/2000/svg">
    <defs>
        <symbol id="icon-create" viewBox="0 0 32 32">
            <title>create</title>
            <path fill="#f47637" style="fill: var(--color1, #f47637)" d="M6.454 21.731l19.168-19.171c-0.26-0.171-0.53-0.331-0.804-0.486-0.356-0.198-0.754-0.269-1.128-0.219-0.374 0.052-0.73 0.229-1.022 0.521l-17.41 17.41 1.196 1.945zM29.778 7.434l-17.283 17.283 0.132 0.89 16.639-16.635c0.293-0.293 0.466-0.649 0.521-1.023 0.023-0.169 0.018-0.347-0.009-0.515v0zM3.536 24.931c1.484 0.964 2.548 2.014 3.27 3.146l4.087-1.173-0.681-2.867-3.478 0.32-0.143 0.009c-0.361 0.063-0.734-0.091-0.941-0.425l-1.25-2.032-0.863 3.023zM25.714 0.469c1.17 0.655 2.21 1.435 3.114 2.34l0.051 0.054c0.885 0.898 1.653 1.917 2.292 3.064 0.401 0.72 0.538 1.511 0.433 2.273s-0.456 1.489-1.036 2.069l-0.005 0.004h0.005l-17.926 17.927c-0.124 0.123-0.27 0.201-0.43 0.242l-11.041 3.159c-0.488 0.142-0.994-0.141-1.137-0.63-0.044-0.174-0.044-0.347 0-0.507l3.165-11.041c0.042-0.164 0.128-0.319 0.257-0.438l17.912-17.913c0.58-0.58 1.305-0.934 2.068-1.039 0.763-0.108 1.558 0.034 2.279 0.434v0z"></path>
        </symbol>
        <symbol id="icon-invest" viewBox="0 0 40 32">
            <title>invest</title>
            <path fill="#f47637" style="fill: var(--color1, #f47637)" d="M10.608 19.751v0c-0.058-0.542-0.088-1.097-0.088-1.653 0-1.38 0.181-2.718 0.516-3.992h-9.369c-0.916 0-1.666 0.753-1.666 1.677v2.293c0 0.922 0.75 1.675 1.666 1.675h8.941zM11.485 12.698v0c0.797-2.148 2.053-4.070 3.651-5.645h-13.469c-0.916 0-1.666 0.753-1.666 1.677v2.293c0 0.922 0.75 1.675 1.666 1.675h9.818zM16.781 5.645v0c2.545-1.888 5.689-3.004 9.096-3.004 0.144 0 0.288 0.006 0.432 0.008v-0.973c0-0.92-0.746-1.675-1.663-1.675h-22.98c-0.916 0-1.666 0.755-1.666 1.675v2.296c0 0.92 0.75 1.673 1.666 1.673h15.114zM35.482 27.766v0c-2.459 2.473-5.855 4.006-9.605 4.006-3.751 0-7.149-1.532-9.609-4.006-2.457-2.473-3.978-5.894-3.978-9.668 0-3.776 1.52-7.194 3.982-9.668 2.455-2.475 5.854-4.006 9.605-4.006 3.75 0 7.146 1.53 9.605 4.006 2.457 2.473 3.978 5.892 3.978 9.668 0 3.774-1.52 7.194-3.978 9.668zM25.877 29.411c3.103 0 5.913-1.267 7.946-3.311 2.035-2.050 3.293-4.877 3.293-8.002s-1.259-5.954-3.293-8c-2.033-2.048-4.844-3.315-7.946-3.315-3.106 0-5.917 1.267-7.95 3.315-2.033 2.046-3.293 4.873-3.293 8 0 3.125 1.26 5.952 3.293 8.002 2.033 2.044 4.844 3.311 7.95 3.311v0zM26.739 18.972v4.736h0.527c0.911 0 1.582-0.166 2.020-0.499 0.441-0.329 0.658-0.945 0.658-1.835 0-0.7-0.123-1.21-0.37-1.538-0.249-0.326-0.569-0.535-0.961-0.625-0.395-0.090-1.019-0.168-1.874-0.239v0zM25.009 12.335h-0.419c-0.61 0.006-1.088 0.049-1.449 0.128-0.353 0.081-0.64 0.264-0.851 0.544-0.209 0.29-0.314 0.734-0.314 1.342 0 0.87 0.252 1.466 0.754 1.79 0.503 0.322 1.262 0.484 2.28 0.484v-4.288zM26.739 12.335v4.348c1.317 0.049 2.383 0.168 3.209 0.367 0.823 0.192 1.491 0.604 1.995 1.231 0.511 0.627 0.763 1.555 0.763 2.776 0 1.25-0.183 2.232-0.554 2.94-0.365 0.71-0.935 1.22-1.717 1.532-0.778 0.312-1.838 0.495-3.17 0.553h-0.527v1.681h-1.73v-1.681c-0.905 0-1.711-0.070-2.429-0.207-0.713-0.143-1.333-0.382-1.859-0.728-0.526-0.343-0.933-0.824-1.219-1.444-0.292-0.619-0.438-1.389-0.438-2.31l-0.019-0.574h2.742c0 0.698 0.054 1.229 0.166 1.604 0.112 0.371 0.294 0.644 0.537 0.817 0.247 0.173 0.529 0.282 0.845 0.324 0.312 0.047 0.873 0.094 1.674 0.143v-4.736c-1.055-0.070-1.896-0.16-2.519-0.265s-1.184-0.307-1.685-0.604c-0.503-0.297-0.888-0.744-1.163-1.333-0.269-0.595-0.41-1.385-0.41-2.376 0-1.22 0.241-2.155 0.716-2.81 0.477-0.657 1.135-1.101 1.964-1.325 0.83-0.232 1.861-0.344 3.097-0.344v-1.481h1.73v1.481c1.382 0.060 2.452 0.198 3.215 0.418 0.757 0.218 1.341 0.657 1.743 1.32 0.404 0.657 0.61 1.653 0.61 2.976h-2.678c-0.013-0.087-0.021-0.196-0.021-0.32 0-0.774-0.17-1.295-0.503-1.568-0.333-0.271-0.896-0.405-1.689-0.405h-0.677zM13.186 26.804h-11.52c-0.916 0-1.666-0.753-1.666-1.677v-2.291c0-0.924 0.75-1.677 1.666-1.677h9.156c0.41 2.059 1.227 3.968 2.364 5.645v0z"></path>
        </symbol>
        <symbol id="icon-layered" viewBox="0 0 32 32">
            <title>layered</title>
            <path fill="#f47637" style="fill: var(--color1, #f47637)" d="M26.957 26.958c2.86-2.859 4.624-6.806 4.624-11.165s-1.764-8.31-4.624-11.166c-2.858-2.859-6.806-4.626-11.165-4.626s-8.307 1.767-11.168 4.626c-2.856 2.856-4.624 6.806-4.624 11.166s1.768 8.307 4.624 11.165c2.861 2.856 6.808 4.624 11.168 4.624s8.307-1.768 11.165-4.624zM5.009 7.414c0.349-0.449 0.725-0.877 1.127-1.278 0.371-0.371 0.76-0.717 1.168-1.040-0.134 0.817-0.227 1.619-0.28 2.399-0.67-0.057-1.345-0.085-2.014-0.081zM3.611 20.719c-0.080 0.258-0.157 0.517-0.225 0.781-0.131-0.279-0.248-0.563-0.36-0.853 0.195 0.026 0.392 0.049 0.584 0.072zM29.444 15.645v0.147c0 1.552-0.258 3.045-0.739 4.436-0.433-0.797-1.014-1.627-1.718-2.463 1.004-0.636 1.829-1.347 2.456-2.12zM26.274 16.964c-0.7-0.749-1.495-1.497-2.371-2.225 0.163-1.27 0.169-2.541 0.019-3.779-0.321 0.149-0.671 0.243-1.042 0.27 0.099 0.891 0.113 1.805 0.036 2.72-1.155-0.885-2.425-1.729-3.778-2.499-0.966-0.548-1.974-1.059-3.016-1.52 1.21-0.438 2.445-0.765 3.675-0.983-0.047-0.211-0.074-0.431-0.074-0.657 0-0.141 0.010-0.281 0.029-0.415-1.694 0.287-3.403 0.779-5.048 1.464-2.126-0.825-4.362-1.436-6.622-1.73 0.072-1.089 0.227-2.222 0.47-3.399 2.098-1.315 4.579-2.073 7.238-2.073 0.389 0 0.774 0.017 1.157 0.048 1.72 0.922 3.067 2.194 4.045 3.683 0.294-0.205 0.625-0.355 0.983-0.442-0.651-1.024-1.459-1.955-2.425-2.765 2.259 0.647 4.28 1.861 5.894 3.475 0.563 0.563 1.075 1.176 1.535 1.829-0.462-0.102-0.936-0.187-1.418-0.251 0.036 0.187 0.055 0.381 0.055 0.577 0 0.172-0.014 0.339-0.043 0.504 0.775 0.106 1.522 0.272 2.226 0.493 0.763 1.408 1.288 2.968 1.516 4.619-0.568 1.144-1.599 2.174-3.042 3.057zM22.963 18.479c0.317-0.828 0.564-1.674 0.739-2.527 0.589 0.509 1.133 1.023 1.629 1.539-0.712 0.361-1.503 0.691-2.367 0.988zM2.654 19.52c-0.336-1.185-0.517-2.435-0.517-3.728 0-2.683 0.774-5.184 2.108-7.291 0.906-0.040 1.818-0.018 2.729 0.061-0.022 0.983 0.021 1.933 0.123 2.85 0.31-0.113 0.645-0.173 0.991-0.173h0.064c-0.093-0.823-0.13-1.677-0.115-2.563 1.795 0.243 3.576 0.69 5.293 1.291l-0.229 0.115c-1.068 0.547-2.097 1.179-3.063 1.893 0.269 0.237 0.491 0.52 0.659 0.839 0.91-0.675 1.881-1.27 2.887-1.783 0.374-0.192 0.755-0.372 1.136-0.54 1.355 0.547 2.661 1.186 3.892 1.886 1.51 0.859 2.909 1.807 4.153 2.797-0.211 1.259-0.587 2.509-1.123 3.714-0.274 0.077-0.557 0.151-0.843 0.221-2.517 0.616-5.484 0.976-8.827 1.021-0.13-0.147-0.258-0.298-0.383-0.449-0.744-0.915-1.386-1.921-1.913-3.012-0.296 0.192-0.632 0.33-0.989 0.403 0.525 1.101 1.164 2.122 1.899 3.059-1.747-0.021-3.586-0.125-5.508-0.322 0.444-1.074 1.008-2.076 1.665-3.003-0.321-0.163-0.608-0.387-0.844-0.653-0.723 1.016-1.341 2.119-1.827 3.301l-0.093 0.234c-0.439-0.051-0.878-0.107-1.323-0.168zM17.735 27.196c1.278 0 2.314-1.036 2.314-2.312s-1.036-2.312-2.314-2.312c-1.276 0-2.312 1.036-2.312 2.312s1.036 2.312 2.312 2.312zM8.088 16.498c-1.277 0-2.31-1.033-2.31-2.312 0-1.276 1.033-2.312 2.31-2.312 1.278 0 2.314 1.036 2.314 2.312 0 1.279-1.036 2.312-2.314 2.312zM22.672 10.602c-1.277 0-2.312-1.036-2.312-2.312s1.034-2.312 2.312-2.312c1.277 0 2.31 1.036 2.31 2.312s-1.033 2.312-2.31 2.312zM15.792 29.444c-1.546 0-3.032-0.257-4.418-0.729 1.567-0.424 2.997-1.019 4.279-1.748-0.253-0.253-0.461-0.551-0.608-0.881-1.56 0.874-3.35 1.54-5.36 1.919-1.32-0.66-2.518-1.528-3.549-2.558-0.75-0.752-1.414-1.592-1.976-2.5 0.13-0.727 0.308-1.429 0.532-2.103 2.401 0.253 4.679 0.368 6.812 0.358 1.004 1.072 2.152 2.009 3.418 2.807 0.108-0.347 0.279-0.668 0.5-0.948-0.881-0.557-1.696-1.187-2.44-1.887 3.006-0.098 5.699-0.453 8.023-1.019-0.343 0.609-0.73 1.2-1.159 1.768-0.138 0.183-0.283 0.361-0.429 0.54 0.294 0.204 0.548 0.461 0.75 0.757 0.183-0.215 0.357-0.435 0.528-0.655 0.667-0.883 1.237-1.818 1.708-2.788 1.374-0.413 2.601-0.908 3.664-1.476 0.973 1.128 1.695 2.237 2.103 3.261-0.675 1.453-1.603 2.765-2.723 3.886-0.213 0.214-0.435 0.419-0.659 0.618-1.053-0.089-2.078-0.247-3.069-0.463-0.361-0.081-0.716-0.168-1.067-0.264-0.058 0.364-0.181 0.704-0.356 1.010 0.392 0.109 0.789 0.207 1.194 0.296h0.002c0.68 0.149 1.379 0.27 2.090 0.364-2.21 1.538-4.893 2.437-7.788 2.437z"></path>
        </symbol>
        <symbol id="icon-presentation" viewBox="0 0 29 32">
            <title>presentation</title>
            <path fill="#f47637" style="fill: var(--color1, #f47637)" d="M25.263 23.745h-22.062c-0.763 0-1.386-0.623-1.386-1.386v-16.257h24.834v16.257c0 0.764-0.623 1.386-1.386 1.386zM0.517 6.102v16.551c0 0.66 0.268 1.255 0.701 1.688s1.030 0.701 1.688 0.701h22.651c0.66 0 1.258-0.268 1.688-0.701 0.433-0.433 0.701-1.028 0.701-1.688v-16.551c0.228 0 0.519 0.005 0.519-0.315v-1.848c0-0.174-0.141-0.315-0.315-0.315h-27.837c-0.174 0-0.315 0.141-0.315 0.315v1.848c0 0.32 0.291 0.315 0.517 0.315v0zM13.325 2.774v-1.71c0-1.178 1.814-1.178 1.814 0v1.71h-1.814zM13.325 25.876v4.531c0 1.178 1.814 1.178 1.814 0v-4.531h-1.814zM18.175 25.876l3.861 3.861c0.832 0.832-0.449 2.115-1.284 1.283l-5.142-5.144h2.564zM10.29 25.876l-3.861 3.861c-0.833 0.832 0.449 2.115 1.282 1.283l5.143-5.144h-2.564zM16.272 14.92l5.652-5.651c0.832-0.833 2.115 0.451 1.281 1.284-2.807 2.807-4.123 4.124-6.933 6.932l-3.6-3.598c-2.381 2.38-3.729 3.728-6.109 6.109-0.833 0.832-2.115-0.449-1.282-1.284 2.807-2.809 4.583-4.583 7.391-7.391 0 0 3.301 3.302 3.6 3.6v0z"></path>
            <path fill="#f47637" style="fill: var(--color1, #f47637)" d="M25.189 6.646c0-0.168-0.144-0.315-0.315-0.315h-21.283c-0.171 0-0.315 0.142-0.315 0.315v15.398c0 0.172 0.141 0.315 0.315 0.315h21.283c0.171 0 0.315-0.141 0.315-0.316v-15.397zM2.612 3.625h23.24c1.127 0 2.044 0.917 2.044 2.044v17.353c0 1.125-0.916 2.044-2.044 2.044h-23.24c-1.125 0-2.044-0.919-2.044-2.044v-17.353c0-1.125 0.918-2.044 2.044-2.044v0z"></path>
        </symbol>
        <symbol id="icon-search-contact" viewBox="0 0 32 32">
            <title>search-contact</title>
            <path fill="#f47637" style="fill: var(--color1, #f47637)" d="M12.633 13.532c-1.366 0-2.948-1.847-2.948-4.124s-0.39-4.122 2.948-4.122c3.339 0 2.948 1.844 2.948 4.122s-1.581 4.124-2.948 4.124zM19.425 5.839c1.801 1.804 2.813 4.244 2.813 6.792 0 5.227-4.224 9.604-9.605 9.604-5.33 0-9.605-4.331-9.605-9.604 0-1.296 0.26-2.538 0.726-3.671 0.49-1.179 1.201-2.237 2.087-3.121 1.802-1.802 4.239-2.811 6.792-2.811 2.548 0 4.99 1.005 6.792 2.811zM17.463 0.954c-1.487-0.614-3.118-0.954-4.83-0.954-1.717 0-3.349 0.341-4.835 0.954-3.083 1.278-5.566 3.756-6.842 6.844-0.616 1.486-0.956 3.118-0.956 4.833s0.341 3.345 0.956 4.832c0.636 1.544 1.577 2.933 2.742 4.099 1.167 1.169 2.558 2.107 4.1 2.747 1.486 0.613 3.118 0.954 4.835 0.954 0.996 0 1.967-0.115 2.892-0.333 1.152-0.27 2.093-0.665 3.139-1.188l0.24 0.39c0.070 0.108 0.155 0.225 0.25 0.343 0.080 0.105 0.175 0.21 0.28 0.316l6.071 6.073c0.741 0.737 1.712 1.106 2.683 1.106 2.102 0 3.789-1.687 3.789-3.786h0.005c0-0.974-0.371-1.945-1.106-2.683l-6.076-6.076c-0.105-0.105-0.215-0.201-0.315-0.283-0.116-0.090-0.23-0.173-0.351-0.247l-0.385-0.241 0.205-0.408c0.426-0.855 0.756-1.769 0.981-2.725 0.216-0.926 0.33-1.892 0.33-2.89 0-1.715-0.34-3.347-0.956-4.833-0.64-1.544-1.581-2.935-2.742-4.099-1.167-1.166-2.558-2.105-4.104-2.745zM17.789 18.907h-10.316c-0.225 0-0.405-0.185-0.405-0.41v-1.399c0-3.662 11.131-3.664 11.131 0v1.399c0 0.225-0.185 0.41-0.41 0.41z"></path>
        </symbol>
        <symbol id="icon-target" viewBox="0 0 39 32">
            <title>target</title>
            <path fill="#f47637" style="fill: var(--color1, #f47637)" d="M21.252 28.458c0.382 0.691 1.966 2.085 2.594 2.714 2.036 2.036 5.246-1.078 3.162-3.162l-2.035-2.035c3.002-2.731 4.886-6.67 4.886-11.046 0-1.205-0.142-2.372-0.408-3.491l-3.279 1.499c0.111 0.639 0.17 1.298 0.17 1.97 0 6.302-5.11 11.41-11.412 11.41s-11.41-5.108-11.41-11.41 5.108-11.41 11.41-11.41c3.762 0 7.099 1.821 9.176 4.628l3.244-1.484c-2.213-3.31-5.712-5.685-9.781-6.41-0.871-0.156-1.752-0.233-2.64-0.233-8.020 0-14.93 6.46-14.93 14.93 0 4.388 1.896 8.34 4.916 11.070l-2.012 2.010c-2.104 2.104 1.053 5.273 3.162 3.162 0.63-0.631 2.19-2.005 2.585-2.695 1.909 0.886 4.035 1.383 6.279 1.383 2.26 0 4.401-0.504 6.322-1.402v0zM14.928 8.162c-3.703 0-6.705 3.002-6.705 6.705s3.002 6.703 6.705 6.703c3.242 0 5.946-2.299 6.569-5.356l-3.618 0.403c-0.599 1.004-1.694 1.674-2.949 1.674-1.895 0-3.432-1.535-3.432-3.432 0-1.894 1.537-3.433 3.432-3.433 0.452 0 0.882 0.088 1.276 0.246l2.52-2.331c-1.081-0.744-2.388-1.179-3.797-1.179v0zM29.918 7.165l1.185-1.796c0.039-0.058 0.085-0.098 0.148-0.126l5.293-2.422c0.146-0.066 0.312-0.028 0.415 0.093 0.105 0.123 0.116 0.291 0.024 0.427l-1.703 2.55 3.253 0.559c0.156 0.027 0.271 0.146 0.292 0.302s-0.062 0.303-0.203 0.368l-5.378 2.46c-0.068 0.031-0.133 0.041-0.207 0.026l-2.377-0.419-7.568 3.465 0.626 1.366c0.039 0.089 0.037 0.183-0.012 0.267-0.047 0.087-0.128 0.138-0.224 0.15-2.673 0.298-5.347 0.598-8.018 0.896-0.154 0.016-0.298-0.064-0.361-0.205-0.063-0.142-0.033-0.303 0.081-0.408 1.953-1.808 3.908-3.618 5.862-5.426 0.085-0.080 0.195-0.111 0.31-0.086 0.114 0.023 0.204 0.093 0.253 0.198l0.59 1.294 7.72-3.532z"></path>
        </symbol>
    </defs>
</svg>